<svg width="261" height="51" viewBox="0 0 261 51" fill="none" xmlns="http://www.w3.org/2000/svg">
<path d="M28.6807 23.4949L32.3526 17.2642L42.2501 32.6796L42.2547 35.6381L42.2224 15.2804C42.1991 14.7826 41.9348 14.3272 41.5133 14.0586L23.6941 3.80919C23.2775 3.60429 22.7487 3.60675 22.3327 3.81565C22.2764 3.84396 22.2238 3.87442 22.1733 3.90795L22.1112 3.94702L4.81474 13.97L4.74767 14.0008C4.66122 14.0402 4.57415 14.0909 4.492 14.1494C4.16403 14.3845 3.94621 14.7324 3.87576 15.1222C3.8653 15.1813 3.8573 15.2416 3.85391 15.3025L3.88099 31.892L13.1001 17.6032C14.2606 15.7086 16.7896 15.0979 19.1373 15.1315L21.8924 15.2041L5.65804 41.2394L7.5717 42.3411L24.0005 15.2305L31.2623 15.2041L14.8759 42.9989L21.7045 46.9268L22.5204 47.3957C22.8656 47.536 23.2723 47.543 23.6203 47.4172L41.6899 36.9456L38.2351 38.9476L28.6807 23.4949ZM30.0815 43.673L23.1846 32.8479L27.395 25.7033L36.4529 39.9804L30.0815 43.673Z" fill="#2D374B"/>
<path d="M23.1844 32.8481L30.0815 43.6729L36.4526 39.9807L27.3947 25.7036L23.1844 32.8481Z" fill="#28A0F0"/>
<path d="M42.2549 35.638L42.2503 32.6796L32.3528 17.2642L28.6809 23.4949L38.2356 38.9476L41.6904 36.9456C42.0291 36.6706 42.2343 36.2666 42.2558 35.8309L42.2549 35.638Z" fill="#28A0F0"/>
<path d="M0.779572 38.4279L5.65817 41.239L21.8926 15.2038L19.1375 15.1312C16.79 15.0979 14.261 15.7083 13.1002 17.6029L3.88111 31.8917L0.779572 36.657V38.4279Z" fill="white"/>
<path d="M31.2625 15.2041L24.0007 15.2306L7.57187 42.3411L13.3144 45.6473L14.8758 42.9989L31.2625 15.2041Z" fill="white"/>
<path d="M45.3149 15.1663C45.2543 13.6477 44.4319 12.2577 43.144 11.4482L25.0913 1.06645C23.8173 0.424977 22.2258 0.424054 20.9493 1.06614C20.7985 1.14214 3.39347 11.2365 3.39347 11.2365C3.15257 11.3519 2.92059 11.4894 2.70246 11.6457C1.55273 12.4699 0.851872 13.7504 0.779572 15.1571V36.6574L3.88111 31.892L3.85404 15.3023C3.85773 15.2417 3.86542 15.1817 3.87588 15.1229C3.94603 14.7325 4.16416 14.3845 4.49213 14.1492C4.57427 14.0907 22.2762 3.84372 22.3325 3.81541C22.7488 3.60651 23.2774 3.60405 23.6939 3.80895L41.5131 14.0584C41.9346 14.327 42.1989 14.7823 42.2223 15.2801V35.8304C42.2007 36.2661 42.0284 36.67 41.6897 36.9451L38.235 38.947L36.4524 39.9802L30.0813 43.6724L23.6201 47.4167C23.2721 47.5425 22.8651 47.5354 22.5202 47.3951L14.8757 42.9983L13.314 45.6467L20.1841 49.602C20.4112 49.7312 20.6136 49.8456 20.7798 49.9392C21.037 50.0835 21.2123 50.1798 21.2742 50.2099C21.7624 50.4471 22.4648 50.585 23.098 50.585C23.6782 50.585 24.2443 50.4785 24.78 50.2687L43.547 39.4005C44.6242 38.5658 45.258 37.3072 45.3149 35.9439V15.1663Z" fill="#96BEDC"/>
<path d="M64.7031 17.9541C65.2439 17.9541 65.6993 18.0646 66.0694 18.2851C66.4395 18.506 66.8025 18.9365 67.1588 19.5773L74.228 32.4127C74.2987 32.5551 74.3169 32.6727 74.2815 32.7653C74.2461 32.8582 74.1427 32.904 73.972 32.904H71.2596C71.0175 32.904 70.8541 32.8114 70.768 32.6265L69.2518 29.8714H59.2144L57.7404 32.6265C57.6407 32.8117 57.4773 32.904 57.2493 32.904H54.4733C54.2875 32.904 54.1776 32.8582 54.1422 32.7653C54.1063 32.6727 54.1241 32.5551 54.1952 32.4127L61.2006 19.5773C61.5563 18.9365 61.9055 18.506 62.2473 18.2851C62.5885 18.0646 62.9869 17.9541 63.4432 17.9541H64.7031ZM60.5598 27.3938H67.9064L64.5108 21.1363C64.4535 21.0369 64.3751 20.9867 64.2757 20.9867H64.1477C64.048 20.9867 63.9693 21.0369 63.9127 21.1363L60.5598 27.3938Z" fill="#2D364D"/>
<path d="M96.654 17.9539C98.2914 17.9539 99.4663 18.3243 100.178 19.0646C100.89 19.8048 101.246 20.9013 101.246 22.3532V23.5706C101.246 24.7951 100.997 25.7633 100.499 26.4749C99.9998 27.1869 99.1879 27.6425 98.0637 27.8416L101.716 32.3694C101.787 32.4408 101.808 32.5476 101.78 32.6897C101.751 32.8321 101.637 32.9032 101.438 32.9032H98.6833C98.4981 32.9032 98.3695 32.882 98.2987 32.8392C98.2274 32.7965 98.1563 32.7254 98.0855 32.6257L94.7108 28.1837H87.8124V32.4334C87.8124 32.7469 87.6555 32.9032 87.3426 32.9032H85.0363C84.709 32.9032 84.5447 32.7466 84.5447 32.4334V18.5945C84.5447 18.1671 84.7585 17.9536 85.1859 17.9536H96.654V17.9539ZM87.8124 25.5784H95.9925C96.7183 25.5784 97.2308 25.4218 97.5296 25.1086C97.8289 24.7954 97.9785 24.3185 97.9785 23.6777V22.7808C97.9785 22.1403 97.8289 21.6631 97.5296 21.3499C97.2308 21.037 96.7183 20.8804 95.9925 20.8804H88.0899C87.9047 20.8804 87.8124 20.9656 87.8124 21.1367V25.5784Z" fill="#2D364D"/>
<path d="M125.129 17.9539C126.596 17.9539 127.638 18.2459 128.258 18.8298C128.878 19.4138 129.187 20.2965 129.187 21.4779V22.503C129.187 23.6992 128.732 24.6031 127.821 25.2151C128.803 25.7848 129.294 26.7032 129.294 27.9702V29.2088C129.294 29.7786 129.23 30.2912 129.102 30.7465C128.974 31.2022 128.763 31.5898 128.472 31.9104C128.18 32.2307 127.792 32.4762 127.308 32.6472C126.824 32.8183 126.226 32.9035 125.514 32.9035H112.828C112.401 32.9035 112.187 32.69 112.187 32.263V18.5945C112.187 18.1671 112.401 17.9536 112.828 17.9536H125.129V17.9539ZM115.455 24.1687H124.211C124.923 24.1687 125.407 24.0619 125.663 23.8484C125.919 23.6349 126.048 23.3217 126.048 22.9085V22.1827C126.048 21.7412 125.923 21.4176 125.674 21.2108C125.425 21.0047 125.023 20.9013 124.468 20.9013H115.732C115.547 20.9013 115.455 20.9942 115.455 21.1788V24.1687ZM115.455 26.4965V29.6789C115.455 29.8641 115.547 29.9564 115.732 29.9564H124.488C125.058 29.9564 125.464 29.8531 125.706 29.6466C125.948 29.4405 126.069 29.1094 126.069 28.6535V27.8416C126.069 27.4004 125.937 27.0659 125.674 26.838C125.411 26.6103 124.923 26.4962 124.211 26.4962H115.455V26.4965Z" fill="#2D364D"/>
<path d="M142.849 17.9541C143.162 17.9541 143.319 18.111 143.319 18.4239V32.4339C143.319 32.7474 143.162 32.9037 142.849 32.9037H140.542C140.215 32.9037 140.051 32.7471 140.051 32.4339V18.4239C140.051 18.1107 140.215 17.9541 140.542 17.9541H142.849Z" fill="#2D364D"/>
<path d="M170.817 17.9541C171.145 17.9541 171.309 18.111 171.309 18.4239V20.5169C171.309 20.8446 171.145 21.0083 170.817 21.0083H164.111V32.4342C164.111 32.7477 163.954 32.904 163.642 32.904H161.314C161.001 32.904 160.845 32.7474 160.845 32.4342V21.0083H154.139C153.811 21.0083 153.647 20.8449 153.647 20.5169V18.4239C153.647 18.1107 153.81 17.9541 154.139 17.9541H170.817Z" fill="#2D364D"/>
<path d="M193.724 17.9539C195.362 17.9539 196.537 18.3243 197.249 19.0646C197.96 19.8048 198.316 20.9013 198.316 22.3532V23.5706C198.316 24.7951 198.067 25.7633 197.569 26.4749C197.07 27.1869 196.258 27.6425 195.134 27.8416L198.786 32.3694C198.857 32.4408 198.878 32.5476 198.85 32.6897C198.821 32.8321 198.708 32.9032 198.509 32.9032H195.754C195.568 32.9032 195.44 32.882 195.369 32.8392C195.298 32.7965 195.227 32.7254 195.156 32.6257L191.781 28.1837H184.883V32.4334C184.883 32.7469 184.726 32.9032 184.413 32.9032H182.107C181.779 32.9032 181.615 32.7466 181.615 32.4334V18.5945C181.615 18.1671 181.829 17.9536 182.256 17.9536H193.724V17.9539ZM184.883 25.5784H193.063C193.789 25.5784 194.301 25.4218 194.6 25.1086C194.899 24.7954 195.049 24.3185 195.049 23.6777V22.7808C195.049 22.1403 194.899 21.6631 194.6 21.3499C194.301 21.037 193.789 20.8804 193.063 20.8804H185.16C184.975 20.8804 184.883 20.9656 184.883 21.1367V25.5784Z" fill="#2D364D"/>
<path d="M211.743 17.9541C212.056 17.9541 212.213 18.111 212.213 18.4239V26.9452C212.213 27.515 212.259 27.9885 212.351 28.3654C212.444 28.7429 212.597 29.0416 212.811 29.2622C213.024 29.4834 213.313 29.64 213.676 29.732C214.039 29.8249 214.498 29.8708 215.053 29.8708H220.969C221.525 29.8708 221.984 29.8249 222.347 29.732C222.71 29.6397 222.998 29.4831 223.212 29.2622C223.425 29.0416 223.575 28.7429 223.661 28.3654C223.746 27.9882 223.788 27.5147 223.788 26.9452V18.4239C223.788 18.1107 223.945 17.9541 224.258 17.9541H226.586C226.899 17.9541 227.056 18.111 227.056 18.4239V27.2655C227.056 28.2906 226.949 29.1628 226.736 29.8818C226.522 30.6009 226.177 31.1845 225.7 31.6331C225.223 32.0813 224.603 32.4056 223.842 32.6047C223.08 32.804 222.158 32.9037 221.076 32.9037H214.926C213.843 32.9037 212.925 32.8043 212.171 32.6047C211.416 32.4056 210.8 32.0813 210.323 31.6331C209.846 31.1845 209.497 30.6009 209.277 29.8818C209.056 29.1628 208.946 28.2906 208.946 27.2655V18.4239C208.946 18.1107 209.109 17.9541 209.437 17.9541H211.743Z" fill="#2D364D"/>
<path d="M242.268 17.9541C242.581 17.9541 242.852 17.9753 243.08 18.0184C243.307 18.0612 243.507 18.143 243.677 18.2639C243.849 18.3851 244.001 18.5491 244.136 18.7553C244.271 18.9617 244.41 19.2358 244.553 19.5776L248.995 29.8286C249.052 29.9569 249.152 30.0209 249.295 30.0209H249.551C249.693 30.0209 249.793 29.9569 249.85 29.8286L254.292 19.5776C254.434 19.2358 254.573 18.9617 254.709 18.7553C254.844 18.5491 254.997 18.3851 255.168 18.2639C255.339 18.143 255.534 18.0612 255.755 18.0184C255.976 17.9753 256.243 17.9541 256.556 17.9541H258.842C259.581 17.9541 260.08 18.1218 260.336 18.4562C260.593 18.7909 260.721 19.3638 260.721 20.1754V32.4342C260.721 32.7477 260.557 32.904 260.23 32.904H258.051C257.737 32.904 257.582 32.7474 257.582 32.4342V21.2861C257.582 21.1439 257.524 21.0726 257.41 21.0726H257.218C257.075 21.0726 256.983 21.1298 256.94 21.2436L252.627 30.8116C252.456 31.1959 252.281 31.5202 252.103 31.7832C251.925 32.0469 251.733 32.2641 251.527 32.4345C251.32 32.6056 251.085 32.7265 250.822 32.7979C250.559 32.8689 250.249 32.9046 249.893 32.9046H248.868C248.512 32.9046 248.202 32.8692 247.939 32.7979C247.675 32.7268 247.44 32.6056 247.234 32.4345C247.027 32.2638 246.835 32.0469 246.657 31.7832C246.479 31.5202 246.305 31.1959 246.134 30.8116L241.82 21.2436C241.777 21.1298 241.685 21.0726 241.542 21.0726H241.35C241.236 21.0726 241.179 21.1439 241.179 21.2861V32.4342C241.179 32.7477 241.023 32.904 240.71 32.904H238.531C238.204 32.904 238.04 32.7474 238.04 32.4342V20.1754C238.04 19.3638 238.168 18.7909 238.424 18.4562C238.681 18.1218 239.186 17.9541 239.941 17.9541H242.268Z" fill="#2D364D"/>
</svg>
