<svg width="112" height="26" viewBox="0 0 112 26" fill="none" xmlns="http://www.w3.org/2000/svg">
<path d="M12.4811 2.58724C13.5288 2.58724 14.4705 3.18061 14.9389 4.13566L22.6663 19.891C23.0952 20.7655 23.0502 21.7841 22.5465 22.6163C22.042 23.4484 21.1682 23.945 20.2092 23.945H4.7537C3.7947 23.945 2.92093 23.4484 2.41648 22.6163C1.91204 21.7841 1.867 20.7655 2.29592 19.891L10.0233 4.13566C10.4918 3.18061 11.4334 2.58724 12.4811 2.58724ZM12.4811 0.661621C10.7246 0.661621 9.11977 1.67317 8.334 3.27456L0.606581 19.0299C-0.111975 20.495 -0.0350615 22.2355 0.809606 23.6285C1.65427 25.0223 3.14682 25.8706 4.7537 25.8706H20.2085C21.8154 25.8706 23.308 25.0223 24.1526 23.6285C24.9973 22.2348 25.0742 20.495 24.3557 19.0299L16.6282 3.27456C15.8432 1.67317 14.2377 0.661621 12.4811 0.661621Z" fill="#5DEB5A"/>
<path d="M55.441 7.10425C55.5339 7.10425 55.6087 7.18054 55.6087 7.27519V14.5171C55.6087 17.9509 53.5015 19.6406 50.7209 19.6406C47.9402 19.6406 45.833 17.9502 45.833 14.5171V7.27519C45.833 7.18054 45.9078 7.10425 46.0007 7.10425H47.6512C47.7441 7.10425 47.8189 7.18054 47.8189 7.27519V14.3935C47.8189 16.7882 49.0454 17.739 50.7209 17.739C52.3963 17.739 53.6228 16.7882 53.6228 14.3935V7.27519C53.6228 7.18054 53.6976 7.10425 53.7905 7.10425H55.441Z" fill="#101820"/>
<path d="M84.3799 13.2668C84.3625 16.8942 81.6512 19.6406 78.1103 19.6406C74.5695 19.6406 71.8408 16.8942 71.8408 13.2668C71.8408 9.63952 74.5695 6.89307 78.1103 6.89307C81.6512 6.89307 84.3625 9.63952 84.3799 13.2668ZM73.8094 13.2668C73.8094 15.8374 75.6574 17.739 78.1103 17.739C80.5633 17.739 82.394 15.8374 82.394 13.2668C82.394 10.6963 80.5459 8.79467 78.1103 8.79467C75.6747 8.79467 73.8094 10.6963 73.8094 13.2668Z" fill="#101820"/>
<path d="M101.984 19.4293H100.274C100.157 19.4293 100.076 19.3085 100.118 19.1969L104.642 7.28498C104.679 7.18608 104.773 7.12109 104.877 7.12109H107.016C107.12 7.12109 107.213 7.18608 107.251 7.28498L111.775 19.1969C111.817 19.3092 111.736 19.4293 111.618 19.4293H109.909C109.839 19.4293 109.776 19.3855 109.752 19.3191L106.104 9.51152C106.049 9.36459 105.845 9.36459 105.79 9.51152L102.141 19.3191C102.116 19.3855 102.054 19.4293 101.985 19.4293H101.984Z" fill="#101820"/>
<path d="M32.9028 19.4293H31.1933C31.0755 19.4293 30.9945 19.3085 31.0367 19.1969L35.5608 7.28498C35.5982 7.18608 35.6918 7.12109 35.7957 7.12109H37.9347C38.0387 7.12109 38.1315 7.18608 38.1696 7.28498L42.6937 19.1969C42.736 19.3092 42.6549 19.4293 42.5371 19.4293H40.8277C40.7577 19.4293 40.6953 19.3855 40.6711 19.3191L37.0229 9.51152C36.9681 9.36459 36.7637 9.36459 36.709 9.51152L33.0601 19.3191C33.0351 19.3855 32.9727 19.4293 32.9035 19.4293H32.9028Z" fill="#101820"/>
<path d="M97.1777 19.1531L93.7845 14.7346C95.699 14.3651 96.8202 13.0463 96.8202 11.0246C96.8202 8.70341 95.3366 7.12109 92.7153 7.12109H87.982C87.8434 7.12109 87.7305 7.23624 87.7305 7.37751C87.7305 8.28452 88.4518 9.01988 89.3415 9.01988H92.5081C94.0949 9.01988 94.8537 9.84635 94.8537 11.0423C94.8537 12.2382 94.1116 13.0823 92.5081 13.0823H87.982C87.8434 13.0823 87.7305 13.1975 87.7305 13.3388V19.259C87.7305 19.3537 87.8053 19.43 87.8982 19.43H89.512C89.6048 19.43 89.6796 19.3537 89.6796 19.259V14.8405H91.5422L94.4885 18.7603C94.8059 19.1827 95.2978 19.43 95.8196 19.43H97.0454C97.1853 19.43 97.2636 19.2661 97.1777 19.1538V19.1531Z" fill="#101820"/>
<path d="M69.1221 19.1531L65.7288 14.7346C67.6434 14.3651 68.7645 13.0463 68.7645 11.0246C68.7645 8.70341 67.281 7.12109 64.6597 7.12109H59.9263C59.7878 7.12109 59.6748 7.23624 59.6748 7.37751C59.6748 8.28452 60.3961 9.01988 61.2858 9.01988H64.4525C66.0393 9.01988 66.798 9.84635 66.798 11.0423C66.798 12.2382 66.0559 13.0823 64.4525 13.0823H59.9263C59.7878 13.0823 59.6748 13.1975 59.6748 13.3388V19.259C59.6748 19.3537 59.7496 19.43 59.8425 19.43H61.4563C61.5492 19.43 61.624 19.3537 61.624 19.259V14.8405H63.4865L66.4328 18.7603C66.7502 19.1827 67.2422 19.43 67.7639 19.43H68.9897C69.1297 19.43 69.208 19.2661 69.1221 19.1538V19.1531Z" fill="#101820"/>
</svg>
