<svg width="160" height="32" viewBox="0 0 160 32" fill="none" xmlns="http://www.w3.org/2000/svg">
<g clip-path="url(#clip0_1_3025)">
<path d="M43.2802 10.421H45.0195L49.8869 21.576H47.589L46.536 19.0234H41.637L40.6156 21.576H38.3652L43.2802 10.421ZM45.8336 17.322L44.0943 12.7847L42.3229 17.322H45.8336Z" fill="#E84142"/>
<path d="M52.043 10.421H54.3569L57.4369 18.8498L60.6125 10.421H62.7831L58.2189 21.576H56.4795L52.043 10.421Z" fill="#E84142"/>
<path d="M69.9696 10.421H71.7095L76.5764 21.576H74.2784L73.2254 19.0234H68.326L67.3045 21.576H65.0547L69.9696 10.421ZM72.5231 17.322L70.7837 12.7847L69.0123 17.322H72.5231Z" fill="#E84142"/>
<path d="M81.0234 10.421H83.0343V19.7797H87.8376V21.576H81.0234V10.421Z" fill="#E84142"/>
<path d="M96.1445 10.421H97.8843L102.751 21.576H100.453L99.4002 19.0234H94.5008L93.4793 21.576H91.2295L96.1445 10.421ZM98.6979 17.322L96.9585 12.7847L95.1871 17.322H98.6979Z" fill="#E84142"/>
<path d="M107.199 10.421H109.864L115.338 18.7084H115.37V10.421H117.38V21.576H114.827L109.242 13.0211H109.21V21.576H107.199V10.421Z" fill="#E84142"/>
<path d="M130.847 13.0364C130.433 12.5952 130.028 12.3009 129.635 12.154C129.251 12.0071 128.863 11.9334 128.47 11.9334C127.885 11.9334 127.353 12.0383 126.874 12.2485C126.406 12.4483 126.002 12.7317 125.661 13.0992C125.32 13.4563 125.055 13.8762 124.863 14.3594C124.682 14.8426 124.592 15.3624 124.592 15.9193C124.592 16.5178 124.682 17.0693 124.863 17.5737C125.055 18.0777 125.32 18.514 125.661 18.8814C126.002 19.2489 126.406 19.5378 126.874 19.748C127.353 19.9582 127.885 20.063 128.47 20.063C128.927 20.063 129.369 19.9582 129.794 19.748C130.23 19.5274 130.635 19.1807 131.007 18.7078L132.666 19.8736C132.156 20.567 131.534 21.071 130.799 21.386C130.065 21.7011 129.283 21.8589 128.454 21.8589C127.581 21.8589 126.778 21.7224 126.044 21.4494C125.32 21.166 124.693 20.7718 124.161 20.2678C123.64 19.7529 123.23 19.1386 122.932 18.4244C122.634 17.7103 122.485 16.9169 122.485 16.0455C122.485 15.174 122.634 14.3441 122.932 13.619C123.23 12.8835 123.64 12.2589 124.161 11.744C124.693 11.2291 125.32 10.8354 126.044 10.5624C126.778 10.279 127.581 10.1371 128.454 10.1371C129.22 10.1371 129.927 10.2736 130.576 10.5466C131.236 10.8092 131.847 11.2608 132.411 11.9018L130.847 13.0359V13.0364Z" fill="#E84142"/>
<path d="M137.208 10.421H139.218V14.8639H144.501V10.421H146.511V21.576H144.501V16.6603H139.218V21.576H137.208V10.421Z" fill="#E84142"/>
<path d="M152.229 10.421H159.713V12.2174H154.239V14.9589H159.426V16.7547H154.239V19.7797H160V21.576H152.229V10.421Z" fill="#E84142"/>
<path d="M16.2063 28.5379C23.22 28.5379 28.9057 22.9245 28.9057 16C28.9057 9.07555 23.22 3.46216 16.2063 3.46216C9.19257 3.46216 3.50684 9.07555 3.50684 16C3.50684 22.9245 9.19257 28.5379 16.2063 28.5379Z" fill="white"/>
<path fill-rule="evenodd" clip-rule="evenodd" d="M32.4124 16C32.4124 24.8364 25.1564 32 16.2062 32C7.25597 32 0 24.8364 0 16C0 7.16365 7.25597 0 16.2062 0C25.1564 0 32.4124 7.16365 32.4124 16ZM11.6139 22.3669H8.4688C7.80803 22.3669 7.4814 22.3669 7.28252 22.2412C7.0676 22.1037 6.93635 21.8757 6.92032 21.624C6.9083 21.392 7.07161 21.1091 7.39824 20.5433L15.1637 7.02912C15.4943 6.45539 15.6611 6.16853 15.8726 6.06219C16.0995 5.94844 16.37 5.94844 16.5969 6.06219C16.8079 6.16853 16.9752 6.45539 17.3058 7.02912L18.9024 9.78053L18.9104 9.79437C19.2671 10.4101 19.4484 10.7222 19.5271 11.0496C19.6148 11.4072 19.6148 11.7846 19.5271 12.1422C19.4474 12.4726 19.2681 12.7866 18.9059 13.4118L14.8265 20.5309L14.816 20.5492C14.4568 21.17 14.2745 21.4845 14.0225 21.7219C13.748 21.9811 13.4173 22.17 13.0551 22.2764C12.7245 22.3669 12.3543 22.3669 11.6139 22.3669ZM19.5566 22.3669H24.0633C24.7281 22.3669 25.0627 22.3669 25.2616 22.2373C25.4765 22.0998 25.6118 21.8678 25.6238 21.6161C25.6353 21.392 25.4755 21.1195 25.1629 20.5868C25.1524 20.5685 25.1414 20.5502 25.1304 20.5314L22.873 16.7186L22.8475 16.6756C22.5304 16.1459 22.3701 15.8783 22.1647 15.775C21.9377 15.6612 21.6712 15.6612 21.4443 15.775C21.2374 15.8813 21.0701 16.1602 20.7394 16.7221L18.4901 20.5349L18.4826 20.5483C18.1534 21.1096 17.9886 21.39 18.0007 21.62C18.0167 21.8718 18.1479 22.1032 18.3628 22.2412C18.5577 22.3669 18.8924 22.3669 19.5571 22.3669H19.5566Z" fill="#E84142"/>
</g>
<defs>
<clipPath id="clip0_1_3025">
<rect width="160" height="32" fill="white"/>
</clipPath>
</defs>
</svg>
