<svg width="166" height="30" viewBox="0 0 166 30" fill="none" xmlns="http://www.w3.org/2000/svg">
<g clip-path="url(#clip0_1_3037)">
<path d="M4.86426 4.4658L12.6021 0L20.34 4.4658L17.4945 6.11588L12.6021 3.30016L7.70974 6.11588L4.86592 4.4658H4.86426ZM20.3383 10.0989L17.4928 8.4488L12.6005 11.2645L7.70809 8.4488L4.86426 10.0989V13.399L9.75663 16.2148V21.8478L12.6005 23.4979L15.4443 21.8478V16.2148L20.3367 13.399V10.0989H20.3383ZM20.3383 19.0305V15.7303L17.4928 17.3804V20.6806L20.3383 19.0305V19.0305ZM22.3587 20.1961L17.4664 23.0118V26.312L25.2042 21.8462V12.9146L22.3587 14.5647V20.1978V20.1961ZM19.5149 7.28151L22.3587 8.93159V12.2318L25.2042 10.5817V7.28151L22.3587 5.63143L19.5149 7.28151ZM9.75829 24.2072V27.5074L12.6021 29.1575L15.4459 27.5074V24.2072L12.6021 25.8573L9.75829 24.2072V24.2072ZM4.86592 19.0305L7.70974 20.6806V17.3804L4.86592 15.7303V19.0305ZM9.75663 7.28151L12.6005 8.93159L15.4443 7.28151L12.6005 5.63143L9.75663 7.28151V7.28151ZM2.84382 8.93159L5.68765 7.28151L2.84382 5.63143L0 7.28151V10.5817L2.84382 12.2318V8.93159V8.93159ZM2.84382 14.5647L0 12.9146V21.8462L7.73785 26.312V23.0118L2.84548 20.1961V14.563L2.84382 14.5647Z" fill="#F0B90B"/>
<path d="M47.6292 18.298V18.2517C47.6292 16.0725 46.4701 14.983 44.5919 14.2654C45.7509 13.6156 46.7248 12.5971 46.7248 10.7652V10.7189C46.7248 8.16936 44.6845 6.52258 41.3694 6.52258H33.835V22.7489H41.5546C45.2169 22.7489 47.6275 21.2658 47.6275 18.298H47.6292ZM43.1782 11.367C43.1782 12.5723 42.1813 13.0832 40.6056 13.0832H37.3137V9.65244H40.8371C42.3433 9.65244 43.1782 10.2559 43.1782 11.3207V11.367ZM44.0826 17.8582C44.0826 19.0635 43.132 19.6207 41.5563 19.6207H37.3137V16.051H41.4405C43.2725 16.051 44.0826 16.724 44.0826 17.8136V17.8599V17.8582Z" fill="#F0B90B"/>
<path d="M65.2161 22.7489V6.52258H61.6927V16.514L54.0888 6.52258H50.7969V22.7489H54.3202V12.4334L62.1788 22.7489H65.2161V22.7489Z" fill="#F0B90B"/>
<path d="M83.137 18.298V18.2517C83.137 16.0725 81.978 14.983 80.0997 14.2654C81.2587 13.6156 82.2326 12.5971 82.2326 10.7652V10.7189C82.2326 8.16936 80.1923 6.52258 76.8773 6.52258H69.3428V22.7489H77.0624C80.7247 22.7489 83.1353 21.2658 83.1353 18.298H83.137ZM78.6861 11.367C78.6861 12.5723 77.6891 13.0832 76.1134 13.0832H72.8215V9.65244H76.3449C77.8511 9.65244 78.6861 10.2559 78.6861 11.3207V11.367ZM79.5905 17.8582C79.5905 19.0635 78.6398 19.6207 77.0641 19.6207H72.8215V16.051H76.9484C78.7803 16.051 79.5905 16.724 79.5905 17.8136V17.8599V17.8582Z" fill="#F0B90B"/>
<path d="M104.651 19.8819L102.819 18.0268C101.429 19.3247 100.154 20.1365 98.1601 20.1365C95.0534 20.1365 92.8048 17.5407 92.8048 14.3414C92.8048 11.1421 95.0534 8.5926 98.1601 8.5926C100.015 8.5926 101.406 9.40441 102.704 10.6097L104.536 8.50001C102.983 7.01692 101.174 5.97363 98.1832 5.97363C93.2694 5.97363 89.8154 9.75162 89.8154 14.3877C89.8154 19.0238 93.3388 22.7555 98.0675 22.7555C101.105 22.7555 102.958 21.6428 104.651 19.8803V19.8819Z" fill="#F0B90B"/>
<path d="M118.474 15.6394V22.4778H121.324V6.25146H118.474V12.9973H110.731V6.25146H107.879V22.4778H110.731V15.6394H118.474V15.6394Z" fill="#F0B90B"/>
<path d="M134.116 6.13574H131.474L124.335 22.4778H127.255L128.925 18.5609H136.598L138.243 22.4778H141.257L134.118 6.13574H134.116ZM135.553 16.0346H129.966L132.749 9.54337L135.553 16.0346V16.0346Z" fill="#F0B90B"/>
<path d="M144.434 6.25146V22.4778H147.284V6.25146H144.434Z" fill="#F0B90B"/>
<path d="M163.194 17.4713L154.501 6.25146H151.858V22.4778H154.664V10.9339L163.612 22.4778H166V6.25146H163.194V17.4713Z" fill="#F0B90B"/>
</g>
<defs>
<clipPath id="clip0_1_3037">
<rect width="166" height="29.1575" fill="white"/>
</clipPath>
</defs>
</svg>
