<svg width="232" height="74" viewBox="0 0 232 74" fill="none" xmlns="http://www.w3.org/2000/svg">
<mask id="path-1-outside-1_4_28" maskUnits="userSpaceOnUse" x="72" y="32" width="159" height="26" fill="black">
<rect fill="white" x="72" y="32" width="159" height="26"/>
<path d="M78.5092 34.1818V56H73.8963V34.1818H78.5092ZM87.2157 56L80.9728 34.1818H86.0119L89.6234 49.3416H89.8045L93.7889 34.1818H98.1035L102.077 49.3736H102.269L105.881 34.1818H110.92L104.677 56H100.181L96.0261 41.7351H95.8556L91.7115 56H87.2157ZM132.208 45.0909C132.208 47.4702 131.757 49.4943 130.855 51.1634C129.96 52.8324 128.738 54.1072 127.19 54.9879C125.649 55.8615 123.916 56.2983 121.991 56.2983C120.052 56.2983 118.312 55.858 116.771 54.9773C115.23 54.0966 114.012 52.8217 113.117 51.1527C112.222 49.4837 111.775 47.4631 111.775 45.0909C111.775 42.7116 112.222 40.6875 113.117 39.0185C114.012 37.3494 115.23 36.0781 116.771 35.2045C118.312 34.3239 120.052 33.8835 121.991 33.8835C123.916 33.8835 125.649 34.3239 127.19 35.2045C128.738 36.0781 129.96 37.3494 130.855 39.0185C131.757 40.6875 132.208 42.7116 132.208 45.0909ZM127.531 45.0909C127.531 43.5497 127.3 42.25 126.838 41.1918C126.384 40.1335 125.741 39.331 124.91 38.7841C124.079 38.2372 123.106 37.9638 121.991 37.9638C120.876 37.9638 119.903 38.2372 119.072 38.7841C118.241 39.331 117.595 40.1335 117.133 41.1918C116.679 42.25 116.451 43.5497 116.451 45.0909C116.451 46.6321 116.679 47.9318 117.133 48.9901C117.595 50.0483 118.241 50.8509 119.072 51.3977C119.903 51.9446 120.876 52.218 121.991 52.218C123.106 52.218 124.079 51.9446 124.91 51.3977C125.741 50.8509 126.384 50.0483 126.838 48.9901C127.3 47.9318 127.531 46.6321 127.531 45.0909ZM154.876 41.8203H150.209C150.124 41.2166 149.95 40.6804 149.687 40.2116C149.425 39.7358 149.087 39.331 148.675 38.9972C148.263 38.6634 147.787 38.4077 147.248 38.2301C146.715 38.0526 146.136 37.9638 145.511 37.9638C144.382 37.9638 143.398 38.2443 142.56 38.8054C141.722 39.3594 141.072 40.169 140.611 41.2344C140.149 42.2926 139.918 43.5781 139.918 45.0909C139.918 46.6463 140.149 47.9531 140.611 49.0114C141.079 50.0696 141.733 50.8686 142.571 51.4084C143.409 51.9482 144.378 52.218 145.479 52.218C146.097 52.218 146.669 52.1364 147.194 51.973C147.727 51.8097 148.199 51.5717 148.611 51.2592C149.023 50.9396 149.364 50.5526 149.634 50.098C149.911 49.6435 150.103 49.125 150.209 48.5426L154.876 48.5639C154.755 49.5653 154.453 50.5312 153.97 51.4616C153.494 52.3849 152.851 53.2124 152.042 53.9439C151.239 54.6683 150.28 55.2436 149.165 55.6697C148.057 56.0888 146.804 56.2983 145.405 56.2983C143.459 56.2983 141.719 55.858 140.184 54.9773C138.657 54.0966 137.45 52.8217 136.562 51.1527C135.682 49.4837 135.241 47.4631 135.241 45.0909C135.241 42.7116 135.689 40.6875 136.584 39.0185C137.479 37.3494 138.693 36.0781 140.227 35.2045C141.761 34.3239 143.487 33.8835 145.405 33.8835C146.669 33.8835 147.841 34.0611 148.92 34.4162C150.007 34.7713 150.969 35.2898 151.807 35.9716C152.645 36.6463 153.327 37.4737 153.853 38.4538C154.385 39.4339 154.726 40.5561 154.876 41.8203ZM158.183 56V34.1818H162.796V43.1839H172.161V34.1818H176.763V56H172.161V46.9872H162.796V56H158.183ZM184.327 56H179.384L186.916 34.1818H192.86L200.382 56H195.438L189.973 39.1676H189.803L184.327 56ZM184.018 47.424H195.694V51.0249H184.018V47.424ZM207.621 34.1818V56H203.008V34.1818H207.621ZM229.665 34.1818V56H225.681L216.189 42.2678H216.029V56H211.416V34.1818H215.464L224.882 47.9034H225.074V34.1818H229.665Z"/>
</mask>
<path d="M78.5092 34.1818V56H73.8963V34.1818H78.5092ZM87.2157 56L80.9728 34.1818H86.0119L89.6234 49.3416H89.8045L93.7889 34.1818H98.1035L102.077 49.3736H102.269L105.881 34.1818H110.92L104.677 56H100.181L96.0261 41.7351H95.8556L91.7115 56H87.2157ZM132.208 45.0909C132.208 47.4702 131.757 49.4943 130.855 51.1634C129.96 52.8324 128.738 54.1072 127.19 54.9879C125.649 55.8615 123.916 56.2983 121.991 56.2983C120.052 56.2983 118.312 55.858 116.771 54.9773C115.23 54.0966 114.012 52.8217 113.117 51.1527C112.222 49.4837 111.775 47.4631 111.775 45.0909C111.775 42.7116 112.222 40.6875 113.117 39.0185C114.012 37.3494 115.23 36.0781 116.771 35.2045C118.312 34.3239 120.052 33.8835 121.991 33.8835C123.916 33.8835 125.649 34.3239 127.19 35.2045C128.738 36.0781 129.96 37.3494 130.855 39.0185C131.757 40.6875 132.208 42.7116 132.208 45.0909ZM127.531 45.0909C127.531 43.5497 127.3 42.25 126.838 41.1918C126.384 40.1335 125.741 39.331 124.91 38.7841C124.079 38.2372 123.106 37.9638 121.991 37.9638C120.876 37.9638 119.903 38.2372 119.072 38.7841C118.241 39.331 117.595 40.1335 117.133 41.1918C116.679 42.25 116.451 43.5497 116.451 45.0909C116.451 46.6321 116.679 47.9318 117.133 48.9901C117.595 50.0483 118.241 50.8509 119.072 51.3977C119.903 51.9446 120.876 52.218 121.991 52.218C123.106 52.218 124.079 51.9446 124.91 51.3977C125.741 50.8509 126.384 50.0483 126.838 48.9901C127.3 47.9318 127.531 46.6321 127.531 45.0909ZM154.876 41.8203H150.209C150.124 41.2166 149.95 40.6804 149.687 40.2116C149.425 39.7358 149.087 39.331 148.675 38.9972C148.263 38.6634 147.787 38.4077 147.248 38.2301C146.715 38.0526 146.136 37.9638 145.511 37.9638C144.382 37.9638 143.398 38.2443 142.56 38.8054C141.722 39.3594 141.072 40.169 140.611 41.2344C140.149 42.2926 139.918 43.5781 139.918 45.0909C139.918 46.6463 140.149 47.9531 140.611 49.0114C141.079 50.0696 141.733 50.8686 142.571 51.4084C143.409 51.9482 144.378 52.218 145.479 52.218C146.097 52.218 146.669 52.1364 147.194 51.973C147.727 51.8097 148.199 51.5717 148.611 51.2592C149.023 50.9396 149.364 50.5526 149.634 50.098C149.911 49.6435 150.103 49.125 150.209 48.5426L154.876 48.5639C154.755 49.5653 154.453 50.5312 153.97 51.4616C153.494 52.3849 152.851 53.2124 152.042 53.9439C151.239 54.6683 150.28 55.2436 149.165 55.6697C148.057 56.0888 146.804 56.2983 145.405 56.2983C143.459 56.2983 141.719 55.858 140.184 54.9773C138.657 54.0966 137.45 52.8217 136.562 51.1527C135.682 49.4837 135.241 47.4631 135.241 45.0909C135.241 42.7116 135.689 40.6875 136.584 39.0185C137.479 37.3494 138.693 36.0781 140.227 35.2045C141.761 34.3239 143.487 33.8835 145.405 33.8835C146.669 33.8835 147.841 34.0611 148.92 34.4162C150.007 34.7713 150.969 35.2898 151.807 35.9716C152.645 36.6463 153.327 37.4737 153.853 38.4538C154.385 39.4339 154.726 40.5561 154.876 41.8203ZM158.183 56V34.1818H162.796V43.1839H172.161V34.1818H176.763V56H172.161V46.9872H162.796V56H158.183ZM184.327 56H179.384L186.916 34.1818H192.86L200.382 56H195.438L189.973 39.1676H189.803L184.327 56ZM184.018 47.424H195.694V51.0249H184.018V47.424ZM207.621 34.1818V56H203.008V34.1818H207.621ZM229.665 34.1818V56H225.681L216.189 42.2678H216.029V56H211.416V34.1818H215.464L224.882 47.9034H225.074V34.1818H229.665Z" fill="#F1F1F1"/>
<path d="M78.5092 34.1818H79.5092V33.1818H78.5092V34.1818ZM78.5092 56V57H79.5092V56H78.5092ZM73.8963 56H72.8963V57H73.8963V56ZM73.8963 34.1818V33.1818H72.8963V34.1818H73.8963ZM77.5092 34.1818V56H79.5092V34.1818H77.5092ZM78.5092 55H73.8963V57H78.5092V55ZM74.8963 56V34.1818H72.8963V56H74.8963ZM73.8963 35.1818H78.5092V33.1818H73.8963V35.1818ZM87.2157 56L86.2543 56.2751L86.4617 57H87.2157V56ZM80.9728 34.1818V33.1818H79.6466L80.0114 34.4569L80.9728 34.1818ZM86.0119 34.1818L86.9847 33.9501L86.8017 33.1818H86.0119V34.1818ZM89.6234 49.3416L88.6506 49.5734L88.8336 50.3416H89.6234V49.3416ZM89.8045 49.3416V50.3416H90.5756L90.7717 49.5958L89.8045 49.3416ZM93.7889 34.1818V33.1818H93.0177L92.8217 33.9276L93.7889 34.1818ZM98.1035 34.1818L99.071 33.9288L98.8756 33.1818H98.1035V34.1818ZM102.077 49.3736L101.11 49.6266L101.305 50.3736H102.077V49.3736ZM102.269 49.3736V50.3736H103.059L103.242 49.6049L102.269 49.3736ZM105.881 34.1818V33.1818H105.09L104.908 33.9505L105.881 34.1818ZM110.92 34.1818L111.881 34.4569L112.246 33.1818H110.92V34.1818ZM104.677 56V57H105.431L105.638 56.2751L104.677 56ZM100.181 56L99.2208 56.2796L99.4306 57H100.181V56ZM96.0261 41.7351L96.9862 41.4554L96.7764 40.7351H96.0261V41.7351ZM95.8556 41.7351V40.7351H95.1048L94.8954 41.4561L95.8556 41.7351ZM91.7115 56V57H92.4623L92.6718 56.279L91.7115 56ZM88.1771 55.7249L81.9343 33.9067L80.0114 34.4569L86.2543 56.2751L88.1771 55.7249ZM80.9728 35.1818H86.0119V33.1818H80.9728V35.1818ZM85.0391 34.4136L88.6506 49.5734L90.5962 49.1099L86.9847 33.9501L85.0391 34.4136ZM89.6234 50.3416H89.8045V48.3416H89.6234V50.3416ZM90.7717 49.5958L94.756 34.436L92.8217 33.9276L88.8374 49.0874L90.7717 49.5958ZM93.7889 35.1818H98.1035V33.1818H93.7889V35.1818ZM97.1361 34.4349L101.11 49.6266L103.045 49.1205L99.071 33.9288L97.1361 34.4349ZM102.077 50.3736H102.269V48.3736H102.077V50.3736ZM103.242 49.6049L106.853 34.4131L104.908 33.9505L101.296 49.1423L103.242 49.6049ZM105.881 35.1818H110.92V33.1818H105.881V35.1818ZM109.958 33.9067L103.715 55.7249L105.638 56.2751L111.881 34.4569L109.958 33.9067ZM104.677 55H100.181V57H104.677V55ZM101.141 55.7204L96.9862 41.4554L95.066 42.0147L99.2208 56.2796L101.141 55.7204ZM96.0261 40.7351H95.8556V42.7351H96.0261V40.7351ZM94.8954 41.4561L90.7512 55.721L92.6718 56.279L96.8159 42.0141L94.8954 41.4561ZM91.7115 55H87.2157V57H91.7115V55ZM130.855 51.1634L129.975 50.6879L129.973 50.6908L130.855 51.1634ZM127.19 54.9879L127.683 55.8579L127.684 55.8571L127.19 54.9879ZM116.771 54.9773L117.267 54.109L116.771 54.9773ZM113.117 51.1527L112.236 51.6252L112.236 51.6252L113.117 51.1527ZM113.117 39.0185L113.998 39.491L113.998 39.491L113.117 39.0185ZM116.771 35.2045L117.264 36.0745L117.267 36.0728L116.771 35.2045ZM127.19 35.2045L126.694 36.0728L126.699 36.0755L127.19 35.2045ZM130.855 39.0185L129.973 39.491L129.975 39.4939L130.855 39.0185ZM126.838 41.1918L125.92 41.5864L125.922 41.5916L126.838 41.1918ZM124.91 38.7841L124.36 39.6194L124.36 39.6194L124.91 38.7841ZM119.072 38.7841L119.622 39.6194L119.622 39.6194L119.072 38.7841ZM117.133 41.1918L116.217 40.7919L116.214 40.7971L117.133 41.1918ZM117.133 48.9901L116.214 49.3847L116.217 49.3899L117.133 48.9901ZM119.072 51.3977L119.622 50.5624L119.622 50.5624L119.072 51.3977ZM124.91 51.3977L124.36 50.5624L124.36 50.5624L124.91 51.3977ZM126.838 48.9901L125.922 48.5902L125.92 48.5954L126.838 48.9901ZM131.208 45.0909C131.208 47.3456 130.78 49.1975 129.975 50.6879L131.735 51.6388C132.733 49.7912 133.208 47.5948 133.208 45.0909H131.208ZM129.973 50.6908C129.162 52.2048 128.07 53.3371 126.696 54.1187L127.684 55.8571C129.407 54.8774 130.758 53.46 131.736 51.6359L129.973 50.6908ZM126.697 54.118C125.319 54.899 123.758 55.2983 121.991 55.2983V57.2983C124.073 57.2983 125.979 56.824 127.683 55.8579L126.697 54.118ZM121.991 55.2983C120.21 55.2983 118.643 54.8955 117.267 54.109L116.275 55.8455C117.981 56.8204 119.895 57.2983 121.991 57.2983V55.2983ZM117.267 54.109C115.9 53.3278 114.811 52.1953 113.998 50.6802L112.236 51.6252C113.213 53.4482 114.56 54.8654 116.275 55.8455L117.267 54.109ZM113.998 50.6802C113.198 49.1886 112.775 47.3391 112.775 45.0909H110.775C110.775 47.5871 111.245 49.7787 112.236 51.6252L113.998 50.6802ZM112.775 45.0909C112.775 42.8351 113.199 40.9821 113.998 39.491L112.236 38.5459C111.245 40.3929 110.775 42.5882 110.775 45.0909H112.775ZM113.998 39.491C114.81 37.9765 115.899 36.8484 117.264 36.0745L116.278 34.3346C114.561 35.3078 113.213 36.7224 112.236 38.5459L113.998 39.491ZM117.267 36.0728C118.643 35.2863 120.21 34.8835 121.991 34.8835V32.8835C119.895 32.8835 117.981 33.3614 116.275 34.3363L117.267 36.0728ZM121.991 34.8835C123.757 34.8835 125.316 35.2857 126.694 36.0728L127.686 34.3363C125.981 33.3621 124.075 32.8835 121.991 32.8835V34.8835ZM126.699 36.0755C128.071 36.8497 129.162 37.9776 129.973 39.491L131.736 38.5459C130.758 36.7212 129.406 35.3065 127.681 34.3336L126.699 36.0755ZM129.975 39.4939C130.78 40.9844 131.208 42.8362 131.208 45.0909H133.208C133.208 42.5871 132.733 40.3906 131.735 38.543L129.975 39.4939ZM128.531 45.0909C128.531 43.4558 128.287 42.0109 127.755 40.7919L125.922 41.5916C126.313 42.4891 126.531 43.6437 126.531 45.0909H128.531ZM127.757 40.7971C127.238 39.5881 126.479 38.6194 125.46 37.9488L124.36 39.6194C125.003 40.0425 125.53 40.6789 125.92 41.5864L127.757 40.7971ZM125.46 37.9488C124.446 37.2818 123.277 36.9638 121.991 36.9638V38.9638C122.935 38.9638 123.712 39.1927 124.36 39.6194L125.46 37.9488ZM121.991 36.9638C120.705 36.9638 119.536 37.2818 118.522 37.9488L119.622 39.6194C120.27 39.1927 121.047 38.9638 121.991 38.9638V36.9638ZM118.522 37.9488C117.505 38.6184 116.743 39.5852 116.217 40.7919L118.05 41.5916C118.447 40.6818 118.977 40.0435 119.622 39.6194L118.522 37.9488ZM116.214 40.7971C115.691 42.0145 115.451 43.4574 115.451 45.0909H117.451C117.451 43.642 117.666 42.4855 118.052 41.5864L116.214 40.7971ZM115.451 45.0909C115.451 46.7244 115.691 48.1673 116.214 49.3847L118.052 48.5954C117.666 47.6963 117.451 46.5398 117.451 45.0909H115.451ZM116.217 49.3899C116.743 50.5966 117.505 51.5634 118.522 52.2331L119.622 50.5624C118.977 50.1383 118.447 49.5 118.05 48.5902L116.217 49.3899ZM118.522 52.2331C119.536 52.9 120.705 53.218 121.991 53.218V51.218C121.047 51.218 120.27 50.9892 119.622 50.5624L118.522 52.2331ZM121.991 53.218C123.277 53.218 124.446 52.9 125.46 52.2331L124.36 50.5624C123.712 50.9892 122.935 51.218 121.991 51.218V53.218ZM125.46 52.2331C126.479 51.5624 127.238 50.5937 127.757 49.3847L125.92 48.5954C125.53 49.5029 125.003 50.1393 124.36 50.5624L125.46 52.2331ZM127.755 49.3899C128.287 48.1709 128.531 46.726 128.531 45.0909H126.531C126.531 46.5382 126.313 47.6928 125.922 48.5902L127.755 49.3899ZM154.876 41.8203V42.8203H156L155.869 41.7031L154.876 41.8203ZM150.209 41.8203L149.219 41.9601L149.341 42.8203H150.209V41.8203ZM149.687 40.2116L148.812 40.6951L148.815 40.7007L149.687 40.2116ZM148.675 38.9972L148.046 39.7741L148.046 39.7741L148.675 38.9972ZM147.248 38.2301L146.931 39.1788L146.935 39.18L147.248 38.2301ZM142.56 38.8054L143.112 39.6396L143.117 39.6364L142.56 38.8054ZM140.611 41.2344L141.527 41.6342L141.528 41.632L140.611 41.2344ZM140.611 49.0114L139.694 49.4112L139.696 49.4164L140.611 49.0114ZM142.571 51.4084L142.029 52.2491L142.029 52.2491L142.571 51.4084ZM147.194 51.973L146.901 51.017L146.898 51.0181L147.194 51.973ZM148.611 51.2592L149.216 52.056L149.224 52.0493L148.611 51.2592ZM149.634 50.098L148.78 49.5776L148.774 49.5875L149.634 50.098ZM150.209 48.5426L150.214 47.5426L149.376 47.5388L149.226 48.3627L150.209 48.5426ZM154.876 48.5639L155.868 48.6836L156.003 47.5691L154.88 47.5639L154.876 48.5639ZM153.97 51.4616L153.082 51.0009L153.081 51.0035L153.97 51.4616ZM152.042 53.9439L152.712 54.6862L152.712 54.6859L152.042 53.9439ZM149.165 55.6697L149.519 56.6051L149.522 56.6039L149.165 55.6697ZM140.184 54.9773L139.685 55.8435L139.687 55.8445L140.184 54.9773ZM136.562 51.1527L135.678 51.6194L135.679 51.6223L136.562 51.1527ZM136.584 39.0185L137.465 39.491L137.465 39.491L136.584 39.0185ZM140.227 35.2045L140.722 36.0735L140.725 36.0718L140.227 35.2045ZM148.92 34.4162L148.608 35.3661L148.61 35.3667L148.92 34.4162ZM151.807 35.9716L151.176 36.7473L151.18 36.7505L151.807 35.9716ZM153.853 38.4538L152.972 38.9264L152.974 38.9313L153.853 38.4538ZM154.876 40.8203H150.209V42.8203H154.876V40.8203ZM151.2 41.6805C151.099 40.9705 150.891 40.313 150.56 39.7226L148.815 40.7007C149.01 41.0478 149.149 41.4627 149.219 41.9601L151.2 41.6805ZM150.563 39.7282C150.239 39.1425 149.819 38.6372 149.305 38.2202L148.046 39.7741C148.355 40.0247 148.61 40.3291 148.812 40.6951L150.563 39.7282ZM149.305 38.2202C148.792 37.8047 148.207 37.4929 147.56 37.2802L146.935 39.18C147.368 39.3224 147.735 39.5221 148.046 39.7741L149.305 38.2202ZM147.564 37.2814C146.918 37.0663 146.232 36.9638 145.511 36.9638V38.9638C146.041 38.9638 146.512 39.0388 146.931 39.1788L147.564 37.2814ZM145.511 36.9638C144.208 36.9638 143.026 37.2902 142.004 37.9744L143.117 39.6364C143.771 39.1984 144.555 38.9638 145.511 38.9638V36.9638ZM142.009 37.9712C140.985 38.648 140.22 39.6219 139.693 40.8368L141.528 41.632C141.925 40.7162 142.459 40.0708 143.112 39.6396L142.009 37.9712ZM139.694 40.8345C139.163 42.0515 138.918 43.4812 138.918 45.0909H140.918C140.918 43.675 141.135 42.5337 141.527 41.6342L139.694 40.8345ZM138.918 45.0909C138.918 46.7388 139.162 48.1912 139.694 49.4112L141.527 48.6115C141.136 47.7151 140.918 46.5538 140.918 45.0909H138.918ZM139.696 49.4164C140.231 50.6237 141.002 51.5874 142.029 52.2491L143.112 50.5677C142.464 50.1498 141.928 49.5155 141.525 48.6064L139.696 49.4164ZM142.029 52.2491C143.046 52.9036 144.207 53.218 145.479 53.218V51.218C144.55 51.218 143.772 50.9927 143.112 50.5677L142.029 52.2491ZM145.479 53.218C146.186 53.218 146.859 53.1246 147.491 52.9279L146.898 51.0181C146.479 51.1481 146.009 51.218 145.479 51.218V53.218ZM147.488 52.9291C148.124 52.734 148.703 52.4447 149.216 52.0559L148.007 50.4625C147.696 50.6987 147.33 50.8854 146.901 51.017L147.488 52.9291ZM149.224 52.0493C149.737 51.6518 150.161 51.1694 150.494 50.6086L148.774 49.5875C148.567 49.9357 148.31 50.2275 147.998 50.4691L149.224 52.0493ZM150.488 50.6184C150.835 50.0482 151.067 49.4119 151.193 48.7226L149.226 48.3627C149.139 48.8381 148.987 49.2388 148.78 49.5776L150.488 50.6184ZM150.205 49.5426L154.871 49.5639L154.88 47.5639L150.214 47.5426L150.205 49.5426ZM153.883 48.4442C153.777 49.3219 153.512 50.1727 153.082 51.0009L154.858 51.9224C155.394 50.8898 155.733 49.8088 155.868 48.6836L153.883 48.4442ZM153.081 51.0035C152.663 51.8145 152.096 52.5469 151.371 53.2019L152.712 54.6859C153.607 53.8778 154.325 52.9554 154.859 51.9198L153.081 51.0035ZM151.372 53.2016C150.67 53.8351 149.82 54.349 148.808 54.7356L149.522 56.6039C150.741 56.1382 151.809 55.5015 152.712 54.6862L151.372 53.2016ZM148.812 54.7344C147.835 55.1037 146.704 55.2983 145.405 55.2983V57.2983C146.903 57.2983 148.28 57.0738 149.519 56.6051L148.812 54.7344ZM145.405 55.2983C143.615 55.2983 142.05 54.8952 140.682 54.11L139.687 55.8445C141.387 56.8207 143.302 57.2983 145.405 57.2983V55.2983ZM140.684 54.111C139.331 53.3308 138.252 52.1991 137.445 50.6831L135.679 51.6223C136.649 53.4444 137.984 54.8623 139.685 55.8435L140.684 54.111ZM137.447 50.686C136.659 49.1931 136.241 47.3414 136.241 45.0909H134.241C134.241 47.5848 134.704 49.7742 135.678 51.6194L137.447 50.686ZM136.241 45.0909C136.241 42.8351 136.665 40.9821 137.465 39.491L135.702 38.5459C134.712 40.3929 134.241 42.5882 134.241 45.0909H136.241ZM137.465 39.491C138.278 37.9753 139.363 36.8471 140.722 36.0735L139.732 34.3356C138.023 35.3091 136.679 36.7236 135.702 38.5459L137.465 39.491ZM140.725 36.0718C142.095 35.2853 143.647 34.8835 145.405 34.8835V32.8835C143.327 32.8835 141.427 33.3624 139.729 34.3373L140.725 36.0718ZM145.405 34.8835C146.575 34.8835 147.64 35.0477 148.608 35.3661L149.233 33.4663C148.042 33.0745 146.763 32.8835 145.405 32.8835V34.8835ZM148.61 35.3667C149.587 35.686 150.439 36.1473 151.176 36.7473L152.438 35.1959C151.5 34.4322 150.427 33.8567 149.231 33.4657L148.61 35.3667ZM151.18 36.7505C151.91 37.3383 152.507 38.0604 152.972 38.9264L154.734 37.9813C154.147 36.8871 153.38 35.9543 152.434 35.1927L151.18 36.7505ZM152.974 38.9313C153.438 39.7851 153.746 40.7819 153.882 41.9375L155.869 41.7031C155.707 40.3303 155.333 39.0828 154.731 37.9763L152.974 38.9313ZM158.183 56H157.183V57H158.183V56ZM158.183 34.1818V33.1818H157.183V34.1818H158.183ZM162.796 34.1818H163.796V33.1818H162.796V34.1818ZM162.796 43.1839H161.796V44.1839H162.796V43.1839ZM172.161 43.1839V44.1839H173.161V43.1839H172.161ZM172.161 34.1818V33.1818H171.161V34.1818H172.161ZM176.763 34.1818H177.763V33.1818H176.763V34.1818ZM176.763 56V57H177.763V56H176.763ZM172.161 56H171.161V57H172.161V56ZM172.161 46.9872H173.161V45.9872H172.161V46.9872ZM162.796 46.9872V45.9872H161.796V46.9872H162.796ZM162.796 56V57H163.796V56H162.796ZM159.183 56V34.1818H157.183V56H159.183ZM158.183 35.1818H162.796V33.1818H158.183V35.1818ZM161.796 34.1818V43.1839H163.796V34.1818H161.796ZM162.796 44.1839H172.161V42.1839H162.796V44.1839ZM173.161 43.1839V34.1818H171.161V43.1839H173.161ZM172.161 35.1818H176.763V33.1818H172.161V35.1818ZM175.763 34.1818V56H177.763V34.1818H175.763ZM176.763 55H172.161V57H176.763V55ZM173.161 56V46.9872H171.161V56H173.161ZM172.161 45.9872H162.796V47.9872H172.161V45.9872ZM161.796 46.9872V56H163.796V46.9872H161.796ZM162.796 55H158.183V57H162.796V55ZM184.327 56V57H185.053L185.278 56.3094L184.327 56ZM179.384 56L178.438 55.6737L177.981 57H179.384V56ZM186.916 34.1818V33.1818H186.203L185.97 33.8555L186.916 34.1818ZM192.86 34.1818L193.806 33.8559L193.573 33.1818H192.86V34.1818ZM200.382 56V57H201.784L201.327 55.6741L200.382 56ZM195.438 56L194.487 56.3088L194.712 57H195.438V56ZM189.973 39.1676L190.924 38.8588L190.7 38.1676H189.973V39.1676ZM189.803 39.1676V38.1676H189.076L188.852 38.8583L189.803 39.1676ZM184.018 47.424V46.424H183.018V47.424H184.018ZM195.694 47.424H196.694V46.424H195.694V47.424ZM195.694 51.0249V52.0249H196.694V51.0249H195.694ZM184.018 51.0249H183.018V52.0249H184.018V51.0249ZM184.327 55H179.384V57H184.327V55ZM180.329 56.3263L187.861 34.5081L185.97 33.8555L178.438 55.6737L180.329 56.3263ZM186.916 35.1818H192.86V33.1818H186.916V35.1818ZM191.915 34.5077L199.436 56.3259L201.327 55.6741L193.806 33.8559L191.915 34.5077ZM200.382 55H195.438V57H200.382V55ZM196.39 55.6912L190.924 38.8588L189.022 39.4764L194.487 56.3088L196.39 55.6912ZM189.973 38.1676H189.803V40.1676H189.973V38.1676ZM188.852 38.8583L183.376 55.6906L185.278 56.3094L190.754 39.477L188.852 38.8583ZM184.018 48.424H195.694V46.424H184.018V48.424ZM194.694 47.424V51.0249H196.694V47.424H194.694ZM195.694 50.0249H184.018V52.0249H195.694V50.0249ZM185.018 51.0249V47.424H183.018V51.0249H185.018ZM207.621 34.1818H208.621V33.1818H207.621V34.1818ZM207.621 56V57H208.621V56H207.621ZM203.008 56H202.008V57H203.008V56ZM203.008 34.1818V33.1818H202.008V34.1818H203.008ZM206.621 34.1818V56H208.621V34.1818H206.621ZM207.621 55H203.008V57H207.621V55ZM204.008 56V34.1818H202.008V56H204.008ZM203.008 35.1818H207.621V33.1818H203.008V35.1818ZM229.665 34.1818H230.665V33.1818H229.665V34.1818ZM229.665 56V57H230.665V56H229.665ZM225.681 56L224.858 56.5686L225.156 57H225.681V56ZM216.189 42.2678L217.011 41.6991L216.713 41.2678H216.189V42.2678ZM216.029 42.2678V41.2678H215.029V42.2678H216.029ZM216.029 56V57H217.029V56H216.029ZM211.416 56H210.416V57H211.416V56ZM211.416 34.1818V33.1818H210.416V34.1818H211.416ZM215.464 34.1818L216.289 33.6159L215.991 33.1818H215.464V34.1818ZM224.882 47.9034L224.057 48.4693L224.355 48.9034H224.882V47.9034ZM225.074 47.9034V48.9034H226.074V47.9034H225.074ZM225.074 34.1818V33.1818H224.074V34.1818H225.074ZM228.665 34.1818V56H230.665V34.1818H228.665ZM229.665 55H225.681V57H229.665V55ZM226.503 55.4314L217.011 41.6991L215.366 42.8364L224.858 56.5686L226.503 55.4314ZM216.189 41.2678H216.029V43.2678H216.189V41.2678ZM215.029 42.2678V56H217.029V42.2678H215.029ZM216.029 55H211.416V57H216.029V55ZM212.416 56V34.1818H210.416V56H212.416ZM211.416 35.1818H215.464V33.1818H211.416V35.1818ZM214.64 34.7477L224.057 48.4693L225.706 47.3375L216.289 33.6159L214.64 34.7477ZM224.882 48.9034H225.074V46.9034H224.882V48.9034ZM226.074 47.9034V34.1818H224.074V47.9034H226.074ZM225.074 35.1818H229.665V33.1818H225.074V35.1818Z" fill="#9A2D2F" mask="url(#path-1-outside-1_4_28)"/>
<path d="M19.0854 17.3221C18.0881 17.3221 17.5895 16.6139 17.2281 16.0936C16.8596 15.566 16.6717 15.3564 16.3104 15.3564C15.949 15.3564 15.7684 15.5732 15.3926 16.0936C15.024 16.6139 14.5254 17.3221 13.5354 17.3221C12.5453 17.3221 12.0395 16.6139 11.6781 16.0936C11.3096 15.566 11.1217 15.3564 10.7604 15.3564C10.399 15.3564 10.2184 15.5732 9.84258 16.0936C9.47403 16.6139 8.9754 17.3221 7.98536 17.3221C6.98809 17.3221 6.48946 16.6139 6.12813 16.0936C5.75958 15.566 5.57169 15.3564 5.21036 15.3564C4.89239 15.3564 4.63223 15.0963 4.63223 14.7783C4.63223 14.4604 4.89239 14.2002 5.21036 14.2002C6.20762 14.2002 6.70626 14.9084 7.06758 15.4287C7.43614 15.9563 7.62403 16.1658 7.98536 16.1658C8.34669 16.1658 8.52735 15.949 8.90313 15.4287C9.27169 14.9084 9.77032 14.2002 10.7604 14.2002C11.7576 14.2002 12.2563 14.9084 12.6176 15.4287C12.9861 15.9563 13.174 16.1658 13.5354 16.1658C13.8967 16.1658 14.0773 15.949 14.4531 15.4287C14.8217 14.9084 15.3203 14.2002 16.3104 14.2002C17.3076 14.2002 17.8063 14.9084 18.1676 15.4287C18.5361 15.9563 18.724 16.1658 19.0854 16.1658C19.4033 16.1658 19.6635 16.426 19.6635 16.7439C19.6635 17.0619 19.4033 17.3221 19.0854 17.3221ZM19.0854 20.9354C18.0881 20.9354 17.5895 20.2271 17.2281 19.7068C16.8596 19.1793 16.6717 18.9697 16.3104 18.9697C15.949 18.9697 15.7684 19.1865 15.3926 19.7068C15.024 20.2271 14.5254 20.9354 13.5354 20.9354C12.5453 20.9354 12.0395 20.2271 11.6781 19.7068C11.3096 19.1793 11.1217 18.9697 10.7604 18.9697C10.399 18.9697 10.2184 19.1865 9.84258 19.7068C9.47403 20.2271 8.9754 20.9354 7.98536 20.9354C6.98809 20.9354 6.48946 20.2271 6.12813 19.7068C5.75958 19.1793 5.57169 18.9697 5.21036 18.9697C4.89239 18.9697 4.63223 18.7096 4.63223 18.3916C4.63223 18.0736 4.89239 17.8135 5.21036 17.8135C6.20762 17.8135 6.70626 18.5217 7.06758 19.042C7.43614 19.5695 7.62403 19.7791 7.98536 19.7791C8.34669 19.7791 8.52735 19.5623 8.90313 19.042C9.27169 18.5217 9.77032 17.8135 10.7604 17.8135C11.7576 17.8135 12.2563 18.5217 12.6176 19.042C12.9861 19.5695 13.174 19.7791 13.5354 19.7791C13.8967 19.7791 14.0773 19.5623 14.4531 19.042C14.8217 18.5217 15.3203 17.8135 16.3104 17.8135C17.3076 17.8135 17.8063 18.5217 18.1676 19.042C18.5361 19.5695 18.724 19.7791 19.0854 19.7791C19.4033 19.7791 19.6635 20.0393 19.6635 20.3572C19.6635 20.6752 19.4033 20.9354 19.0854 20.9354Z" fill="#9A2D2F"/>
<path d="M22.9154 7.52286C22.9154 8.13617 23.1591 8.72436 23.5928 9.15804C24.0264 9.59172 24.6146 9.83536 25.2279 9.83536C25.8412 9.83536 26.4294 9.59172 26.8631 9.15804C27.2968 8.72436 27.5404 8.13617 27.5404 7.52286C27.5404 6.90954 27.2968 6.32135 26.8631 5.88767C26.4294 5.454 25.8412 5.21036 25.2279 5.21036C24.6146 5.21036 24.0264 5.454 23.5928 5.88767C23.1591 6.32135 22.9154 6.90954 22.9154 7.52286Z" fill="#FFEB4D"/>
<path d="M25.2279 10.4135C23.6309 10.4135 22.3373 9.11993 22.3373 7.52286C22.3373 5.92579 23.6309 4.63223 25.2279 4.63223C26.825 4.63223 28.1186 5.92579 28.1186 7.52286C28.1186 9.11993 26.8178 10.4135 25.2279 10.4135ZM25.2279 5.78848C24.274 5.78848 23.4936 6.56895 23.4936 7.52286C23.4936 8.47676 24.274 9.25723 25.2279 9.25723C26.1818 9.25723 26.9623 8.47676 26.9623 7.52286C26.9623 6.56895 26.1818 5.78848 25.2279 5.78848Z" fill="#9A2D2F"/>
<path d="M57.7186 36.2123H14.5037C13.2246 36.2123 12.1912 35.1789 12.1912 33.8998C12.1912 32.6207 13.2246 31.5873 14.5037 31.5873H57.7186V36.2123Z" fill="#FFE0B6"/>
<path d="M51.9373 34.0443H17.9725V23.349C17.9725 22.7131 18.4928 22.1928 19.1287 22.1928H50.7811C51.417 22.1928 51.9373 22.7131 51.9373 23.349V34.0443Z" fill="#FFEB4D"/>
<path d="M17.9725 29.2748H51.9373V31.5873H17.9725V29.2748Z" fill="white"/>
<path d="M61.3318 36.2123H14.5037C13.2246 36.2123 12.1912 35.1789 12.1912 33.8998V61.9389C12.1912 64.4898 14.2652 66.5639 16.8162 66.5639H56.7068C59.2578 66.5639 61.3318 64.4898 61.3318 61.9389V36.2123Z" fill="#FFACC2"/>
<path d="M30.4527 45.8525L29.3615 46.9148C28.8629 46.4018 28.3715 46.1488 27.8873 46.1488C27.5983 46.1488 27.367 46.2283 27.1936 46.3801C27.0129 46.5318 26.9262 46.7053 26.9262 46.9076C26.9262 47.0738 27.0057 47.2473 27.1647 47.4135C27.3164 47.5797 27.6344 47.7603 28.1041 47.9555C28.9424 48.3023 29.5133 48.5986 29.824 48.8443C30.1348 49.09 30.3733 49.3791 30.5322 49.726C30.6984 50.0656 30.7779 50.4559 30.7779 50.875C30.7779 51.3014 30.6912 51.6916 30.5106 52.0529C30.3371 52.4143 30.1059 52.7033 29.824 52.9129C29.5422 53.1225 29.1447 53.2814 28.6244 53.3898V54.9002H27.5621V53.426C27.0707 53.3682 26.6516 53.2453 26.3047 53.0502C25.8277 52.79 25.3869 52.4359 24.9822 52.0023L26.0518 50.9039C26.7383 51.641 27.4104 52.0023 28.0535 52.0023C28.3787 52.0023 28.6606 51.8867 28.899 51.6627C29.1375 51.4314 29.2531 51.1641 29.2531 50.8605C29.2531 50.6004 29.1809 50.3764 29.0291 50.174C28.8774 49.9789 28.5811 49.7766 28.1402 49.5742C27.2442 49.1623 26.6371 48.8299 26.3192 48.5914C26.0012 48.3529 25.7699 48.0783 25.6109 47.7748C25.452 47.4713 25.3797 47.1461 25.3797 46.8064C25.3797 46.2355 25.5893 45.7514 26.0012 45.3467C26.4131 44.942 26.9406 44.7252 27.5693 44.6963V44.1326H28.6172V44.7686C28.9858 44.8553 29.2893 44.9709 29.5494 45.1154C29.8096 45.26 30.1059 45.5057 30.4527 45.8525Z" fill="#9A2D2F"/>
<path d="M61.3318 54.64H50.2029C47.652 54.64 45.5779 52.566 45.5779 50.015C45.5779 47.4641 47.652 45.39 50.2029 45.39H61.3318V54.64Z" fill="#DAE5FF"/>
<path d="M50.1307 52.3275C48.8588 52.3275 47.8182 51.2869 47.8182 50.015C47.8182 48.7432 48.8588 47.7025 50.1307 47.7025C51.4026 47.7025 52.4432 48.7432 52.4432 50.015C52.4432 51.2869 51.4026 52.3275 50.1307 52.3275Z" fill="white"/>
<path d="M50.1307 52.9057C48.5336 52.9057 47.2401 51.6121 47.2401 50.015C47.2401 48.418 48.5336 47.1244 50.1307 47.1244C51.7277 47.1244 53.0213 48.418 53.0213 50.015C53.0213 51.6121 51.7205 52.9057 50.1307 52.9057ZM50.1307 48.2807C49.1768 48.2807 48.3963 49.0611 48.3963 50.015C48.3963 50.9689 49.1768 51.7494 50.1307 51.7494C51.0846 51.7494 51.8651 50.9689 51.8651 50.015C51.8651 49.0611 51.0846 48.2807 50.1307 48.2807Z" fill="#9A2D2F"/>
<path d="M68.7535 53.108C68.3922 53.108 68.2115 52.8912 67.8358 52.3709C67.4672 51.8506 66.9686 51.1424 65.9785 51.1424C64.9885 51.1424 64.4826 51.8506 64.1213 52.3709C63.7527 52.8984 63.5649 53.108 63.2035 53.108C62.8422 53.108 62.6615 52.8912 62.2858 52.3709C62.1774 52.2119 62.0545 52.0385 61.91 51.8723V50.1162C62.2207 50.4125 62.6326 50.651 63.2035 50.651C64.2008 50.651 64.6994 49.9428 65.0608 49.4225C65.4293 48.8949 65.6172 48.6854 65.9785 48.6854C66.3399 48.6854 66.5205 48.9022 66.8963 49.4225C67.2649 49.9428 67.7635 50.651 68.7535 50.651C69.0715 50.651 69.3317 50.3908 69.3317 50.0729C69.3317 49.7549 69.0715 49.4947 68.7535 49.4947C68.3922 49.4947 68.2115 49.2779 67.8358 48.7576C67.4672 48.2373 66.9686 47.5291 65.9785 47.5291C64.9885 47.5291 64.4826 48.2373 64.1213 48.7576C63.7527 49.2852 63.5649 49.4947 63.2035 49.4947C62.8422 49.4947 62.6615 49.2779 62.2858 48.7576C62.1774 48.5986 62.0545 48.4252 61.91 48.259V36.2123C61.91 35.8943 61.6498 35.6342 61.3318 35.6342H58.2967V31.5873C58.2967 31.2693 58.0365 31.0092 57.7186 31.0092H52.5154V23.349C52.5154 22.3951 51.735 21.6147 50.7811 21.6147H19.1287C18.1748 21.6147 17.3943 22.3951 17.3943 23.349V31.0092H14.5037C12.9067 31.0092 11.6131 32.3027 11.6131 33.8998V61.9389C11.6131 63.5721 12.3719 65.0318 13.5498 65.9857H7.2049C6.88693 65.9857 6.62677 66.2459 6.62677 66.5639C6.62677 66.8818 6.88693 67.142 7.2049 67.142H66.7518C67.0697 67.142 67.3299 66.8818 67.3299 66.5639C67.3299 66.2459 67.0697 65.9857 66.7518 65.9857H59.9733C61.1512 65.0318 61.91 63.5721 61.91 61.9389V53.7295C62.2207 54.0258 62.6326 54.2643 63.2035 54.2643C64.2008 54.2643 64.6994 53.5561 65.0608 53.0357C65.4293 52.5082 65.6172 52.2986 65.9785 52.2986C66.3399 52.2986 66.5205 52.5154 66.8963 53.0357C67.2649 53.5561 67.7635 54.2643 68.7535 54.2643C69.0715 54.2643 69.3317 54.0041 69.3317 53.6861C69.3317 53.3682 69.0715 53.108 68.7535 53.108ZM60.7537 54.0619H50.2029C47.9699 54.0619 46.1561 52.2481 46.1561 50.015C46.1561 47.782 47.9699 45.9682 50.2029 45.9682H60.7537V54.0619ZM18.5506 23.349C18.5506 23.0311 18.8108 22.7709 19.1287 22.7709H50.7811C51.099 22.7709 51.3592 23.0311 51.3592 23.349V28.6967H18.5506V23.349ZM18.5506 29.8529H51.3592V31.0092H18.5506V29.8529ZM18.5506 32.1654H51.3592V33.4662H18.5506V32.1654ZM14.5037 32.1654H17.3943V34.0443C17.3943 34.3623 17.6545 34.6225 17.9725 34.6225H51.9373C52.2553 34.6225 52.5154 34.3623 52.5154 34.0443V32.1654H57.1404V35.6342H14.5037C13.5498 35.6342 12.7693 34.8537 12.7693 33.8998C12.7693 32.9459 13.5426 32.1654 14.5037 32.1654ZM56.7141 65.9857H16.8018C14.576 65.9785 12.7621 64.1647 12.7621 61.9389V36.2051H12.7693C12.7766 36.2051 12.7766 36.2123 12.7838 36.2123C12.8127 36.234 12.8416 36.2557 12.8777 36.2773C12.8922 36.2846 12.8994 36.2918 12.9139 36.299C12.9356 36.3135 12.9645 36.3352 12.9861 36.3496C13.0006 36.3568 13.0151 36.3641 13.0223 36.3713C13.0512 36.3857 13.0729 36.4002 13.1018 36.4147C13.1162 36.4219 13.1235 36.4291 13.1379 36.4363C13.174 36.458 13.2102 36.4725 13.2391 36.4869C13.2463 36.4869 13.2463 36.4941 13.2535 36.4941C13.2897 36.5158 13.333 36.5303 13.3692 36.5447C13.3836 36.552 13.3908 36.552 13.4053 36.5592C13.4342 36.5736 13.4631 36.5809 13.492 36.5953C13.5065 36.6025 13.5209 36.6025 13.5354 36.6098C13.5643 36.617 13.5932 36.6315 13.6149 36.6387C13.6293 36.6459 13.6438 36.6459 13.6582 36.6531C13.6871 36.6604 13.7233 36.6748 13.7522 36.682C13.7666 36.682 13.7738 36.6893 13.7883 36.6893C13.8317 36.6965 13.875 36.7109 13.9184 36.7182C13.9256 36.7182 13.9401 36.7182 13.9473 36.7254C13.9834 36.7326 14.0123 36.7398 14.0484 36.7471C14.0629 36.7471 14.0774 36.7543 14.0918 36.7543C14.1207 36.7615 14.1496 36.7615 14.1785 36.7688C14.193 36.7688 14.2074 36.7688 14.2291 36.776C14.258 36.776 14.2942 36.7832 14.3231 36.7832H60.7537V44.8047H50.2029C47.334 44.8047 44.9998 47.1389 44.9998 50.0078C44.9998 52.8768 47.334 55.2109 50.2029 55.2109H60.7537V61.9316C60.7537 64.1647 58.9399 65.9785 56.7141 65.9857Z" fill="#9A2D2F"/>
<path d="M52.5154 33.7625C54.8279 33.7986 56.743 32.7436 57.1404 32.5701V32.1582H52.5154V33.7625ZM17.3943 32.8158V32.1654H14.5037C13.6437 32.1654 12.9283 32.7941 12.791 33.618C14.0701 34.0443 15.0891 33.2133 17.3943 32.8158Z" fill="white"/>
</svg>
