<svg width="113" height="25" viewBox="0 0 113 25" fill="none" xmlns="http://www.w3.org/2000/svg">
<g clip-path="url(#clip0_9816_16269)">
<path d="M35.6686 23.3065V7.85008H37.9774L38.1795 9.1033H38.3008C38.9476 8.25435 40.0795 7.64795 41.6202 7.64795C44.4546 7.64795 46.7589 9.95675 46.7589 13.393C46.7589 16.8293 44.4905 19.1381 41.6157 19.1381C40.0795 19.1381 39.024 18.4912 38.458 17.7636H38.3367V23.2661H35.6641V23.3065H35.6686ZM44.0863 13.393C44.0863 11.3717 42.7926 10.114 41.2115 10.114C39.6304 10.114 38.3367 11.3672 38.3367 13.393C38.3367 15.4188 39.6304 16.672 41.2115 16.672C42.7926 16.672 44.0863 15.4188 44.0863 13.393Z" fill="#22143D"/>
<path d="M48.0928 13.393C48.0928 10.0331 50.5229 7.64795 53.7166 7.64795C56.9552 7.64795 59.3403 10.078 59.3403 13.393C59.3403 16.7529 56.9102 19.1381 53.7166 19.1381C50.4779 19.1381 48.0928 16.7125 48.0928 13.393ZM56.6677 13.393C56.6677 11.4121 55.374 10.114 53.7121 10.114C52.095 10.114 50.7564 11.4076 50.7564 13.393C50.7564 15.3784 52.0905 16.672 53.7121 16.672C55.3336 16.672 56.6677 15.3784 56.6677 13.393Z" fill="#22143D"/>
<path d="M61.2812 18.936V3.60083H63.9539V18.936H61.2812Z" fill="#22143D"/>
<path d="M73.9069 7.85019H76.7413L71.926 21.3257C71.4409 22.6598 70.7941 23.3066 69.0512 23.3066H66.464V20.8361H68.647C69.0512 20.8361 69.2534 20.634 69.3747 20.3105L69.6172 19.5829L65.085 7.8457H67.9193L70.7941 15.5357H71.2388L73.8306 7.8457H73.9069V7.85019Z" fill="#22143D"/>
<path d="M77.2662 19.5064H79.9793C80.1005 20.2341 80.8282 21.2043 82.5306 21.2043C84.1477 21.2043 85.2033 20.1937 85.2033 18.653V17.1167H85.082C84.4756 17.7636 83.3841 18.3295 82.0051 18.3295C79.1707 18.3295 76.9473 16.1465 76.9473 12.9887C76.9473 9.83098 79.1303 7.64795 82.0051 7.64795C83.4604 7.64795 84.5564 8.25435 85.2437 9.06288H85.365L85.5671 7.85008H87.8759V18.653C87.8759 21.6086 85.895 23.5491 82.5351 23.5491C78.762 23.5491 77.347 21.083 77.2662 19.5064ZM85.1583 12.9887C85.1583 11.2504 83.9455 10.0331 82.3644 10.0331C80.8282 10.0331 79.6109 11.2459 79.6109 12.9887C79.6109 14.7316 80.8237 15.9444 82.3644 15.9444C83.9051 15.9444 85.1583 14.7271 85.1583 12.9887Z" fill="#22143D"/>
<path d="M89.6914 13.393C89.6914 10.0331 92.1215 7.64795 95.3152 7.64795C98.5538 7.64795 100.939 10.078 100.939 13.393C100.939 16.7529 98.5089 19.1381 95.3152 19.1381C92.0766 19.1381 89.6914 16.7125 89.6914 13.393ZM98.2708 13.393C98.2708 11.4121 96.9367 10.114 95.3152 10.114C93.6981 10.114 92.3596 11.4076 92.3596 13.393C92.3596 15.3784 93.6936 16.672 95.3152 16.672C96.9323 16.672 98.2708 15.3784 98.2708 13.393Z" fill="#22143D"/>
<path d="M102.804 18.9359V7.85008H105.113L105.315 8.90117H105.436C105.881 8.41605 106.972 7.64795 108.634 7.64795C111.185 7.64795 113.005 9.46714 113.005 12.3015V18.9764H110.332V12.6653C110.332 11.2504 109.321 10.1948 107.942 10.1948C106.563 10.1948 105.472 11.2863 105.472 12.6653V18.9764H102.804V18.9359Z" fill="#22143D"/>
<path d="M21.2632 17.6429L27.8168 13.8383C28.1807 13.6362 28.3828 13.2724 28.3828 12.8681V5.25894C28.3828 4.85468 28.1807 4.49084 27.8168 4.28871L21.2632 0.484119C20.8994 0.281986 20.4951 0.281986 20.1313 0.484119L13.5732 4.28871C13.2094 4.49084 13.0072 4.85468 13.0072 5.25894V18.8153L8.39413 21.4879L3.78101 18.8153V13.5149L8.39413 10.8423L11.4306 12.5806V9.01861L8.9601 7.60368C8.79839 7.52283 8.59626 7.44197 8.39413 7.44197C8.19199 7.44197 7.98986 7.4824 7.82816 7.60368L1.27007 11.4128C0.906234 11.6149 0.704102 11.9787 0.704102 12.383V19.9922C0.704102 20.3964 0.906234 20.7603 1.27007 20.9624L7.82366 24.767C8.1875 24.9691 8.59177 24.9691 8.95561 24.767L15.5092 20.9624C15.873 20.7603 16.0752 20.3964 16.0752 19.9922V6.4358L16.156 6.39538L20.6928 3.76316L25.3059 6.4358V11.7362L20.6928 14.4043L17.6563 12.666V16.228L20.1268 17.6429C20.4906 17.8451 20.8949 17.8451 21.2632 17.6429Z" fill="url(#paint0_linear_9816_16269)"/>
</g>
<defs>
<linearGradient id="paint0_linear_9816_16269" x1="0.658749" y1="20.7394" x2="27.0432" y2="5.32147" gradientUnits="userSpaceOnUse">
<stop stop-color="#A726C1"/>
<stop offset="0.8784" stop-color="#803BDF"/>
<stop offset="1" stop-color="#7B3FE4"/>
</linearGradient>
<clipPath id="clip0_9816_16269">
<rect width="112.296" height="24.5254" fill="white" transform="translate(0.704102 0.362793)"/>
</clipPath>
</defs>
</svg>
