<?xml version="1.0" encoding="utf-8"?>
<!-- Generator: Adobe Illustrator 26.5.0, SVG Export Plug-In . SVG Version: 6.00 Build 0)  -->
<svg version="1.1" id="Layer_1" xmlns="http://www.w3.org/2000/svg" xmlns:xlink="http://www.w3.org/1999/xlink" x="0px" y="0px"
	 viewBox="0 0 220 80" style="enable-background:new 0 0 220 80;" xml:space="preserve">
<path id="XMLID_00000066497903826786724020000008750497876021891245_" d="M168.56,31.45H164c-0.53,0-1.04-0.23-1.39-0.63l-1.85-2.09
	c-0.54-0.6-1.46-0.65-2.06-0.12c-0.04,0.04-0.08,0.07-0.12,0.12L157,30.52c-0.52,0.59-1.26,0.93-2.04,0.93h-24.95
	c-0.72,2.06-1.17,4.21-1.35,6.38h23.55c0.41,0,0.81-0.17,1.09-0.47l2.2-2.29c0.27-0.28,0.65-0.44,1.05-0.44h0.09
	c0.42,0,0.81,0.18,1.09,0.49l1.85,2.09c0.35,0.4,0.86,0.63,1.39,0.63h19.21c-0.18-2.18-0.63-4.32-1.35-6.38h-10.22H168.56z"/>
<path id="XMLID_00000119814104851811790500000008456301736845695928_" d="M142.9,51.25c0.41,0,0.81-0.17,1.09-0.47l2.19-2.29
	c0.28-0.28,0.65-0.44,1.05-0.44h0.09c0.42,0,0.81,0.18,1.09,0.49l1.84,2.09c0.35,0.4,0.86,0.63,1.39,0.63h26.05
	c0.99-2.04,1.71-4.2,2.13-6.43h-25.01c-0.53,0-1.03-0.23-1.38-0.62l-1.85-2.09c-0.28-0.31-0.67-0.49-1.09-0.49
	c-0.42,0-0.81,0.18-1.08,0.49l-1.58,1.79c-0.52,0.59-1.27,0.92-2.05,0.92H129c0.42,2.23,1.13,4.4,2.12,6.45L142.9,51.25z"/>
<path id="XMLID_00000164509077202919354710000005718388933759872139_" d="M161.38,24.47c0.41,0,0.81-0.17,1.1-0.47l2.19-2.28
	c0.27-0.29,0.65-0.45,1.05-0.45h0.09c0.42,0,0.81,0.18,1.08,0.49l1.85,2.09c0.35,0.39,0.86,0.62,1.39,0.62h4.95
	c-8.57-11.42-24.78-13.72-36.19-5.15c-1.95,1.46-3.68,3.2-5.15,5.15H161.38z"/>
<path id="XMLID_00000181083143497507066890000000441756345929399953_" d="M151.43,57.64h-6.77c-0.53,0-1.03-0.23-1.38-0.63
	l-1.84-2.09c-0.54-0.6-1.47-0.65-2.07-0.11c-0.04,0.04-0.08,0.07-0.11,0.11l-1.59,1.82c-0.52,0.59-1.26,0.93-2.04,0.93h-0.1
	c9.73,10.44,26.08,11.01,36.52,1.28c0.44-0.41,0.87-0.84,1.28-1.28L151.43,57.64z"/>
<path id="XMLID_00000047777663856005013910000006512444725616972192_" d="M40.1,64.19l-5.26-12.78H11.34L6.08,64.19H0l23.06-48.34
	l23.13,48.34H40.1z M13.33,46.56h19.47L23,25.95L13.33,46.56z"/>
<path id="XMLID_00000022540404136567425020000006389893286368888509_" d="M54.59,64.19V15.85h13.46c10.52,0,16.05,4.81,16.05,13.9
	c0,8.74-5.87,13.8-16.12,13.8h-7.72v20.64H54.59z M60.26,38.49h6.42c8.13,0,11.7-2.66,11.7-8.74c0-6.29-3.62-8.89-11.68-8.89h-6.44
	L60.26,38.49z"/>
<polygon id="XMLID_00000028291356466580081660000000340506518605148081_" points="104.7,21 88.03,21 88.03,15.81 127.04,15.81 
	127.04,21 110.37,21 110.37,64.19 104.7,64.19 "/>
<path id="XMLID_00000180358480282563141750000006734885306181952395_" d="M188.16,55.37l4.88-3.31l0.37,0.78
	c3.01,5.47,6.29,7.67,11.27,7.67c5.54,0,9.43-3.83,9.43-8.48c0-4.37-2.19-7.31-10.93-10.93c-10.05-4.17-13.46-8.47-13.46-14.62
	c0-6.7,5.27-11.93,14.35-11.93c6.7,0,11.27,2.86,13.87,7.51l-3.96,2.73l-1.16-0.28c-2.05-3.2-4.58-5.05-8.89-5.05
	c-5.26,0-8.33,2.94-8.33,6.9c0,3.69,1.98,5.81,10.52,9.7C217.27,41.12,220,45.29,220,51.99c0,7.31-6.29,13.53-15.24,13.53
	c-7.51,0-12.7-2.87-16.6-10.11"/>
</svg>
